inDegrees=no
num_controls=7
num_derivatives=13
num_iterations=119
num_multipliers=7
num_parameters=0
num_slacks=7
num_states=26
objective=0.444749
objective_accelerations=0.058683
objective_balance=0.003466
objective_effort=0.023297
objective_height=0.353837
objective_ligament=0.005465
solver_duration=1755.851824
status=Solve_Succeeded
success=true
DataType=double
version=3
OpenSimVersion=4.5
endheader
time	/jointset/ground_pelvis/pelvis_tilt/value	/jointset/ground_pelvis/pelvis_tx/value	/jointset/ground_pelvis/pelvis_ty/value	/jointset/hip_l/hip_flexion_l/value	/jointset/hip_l/hip_adduction_l/value	/jointset/hip_l/hip_rotation_l/value	/jointset/back/lumbar_extension/value	/jointset/patellofemoral_l/patellar_flexion_l/value	/jointset/knee_l/knee_flexion_l/value	/jointset/knee_l/knee_adduction_l/value	/jointset/knee_l/knee_rotation_l/value	/jointset/ankle_l/ankle_angle_l/value	/jointset/subtalar_l/subtalar_angle_l/value	/jointset/ground_pelvis/pelvis_tilt/speed	/jointset/ground_pelvis/pelvis_tx/speed	/jointset/ground_pelvis/pelvis_ty/speed	/jointset/hip_l/hip_flexion_l/speed	/jointset/hip_l/hip_adduction_l/speed	/jointset/hip_l/hip_rotation_l/speed	/jointset/back/lumbar_extension/speed	/jointset/patellofemoral_l/patellar_flexion_l/speed	/jointset/knee_l/knee_flexion_l/speed	/jointset/knee_l/knee_adduction_l/speed	/jointset/knee_l/knee_rotation_l/speed	/jointset/ankle_l/ankle_angle_l/speed	/jointset/subtalar_l/subtalar_angle_l/speed	/forceset/tau_hip_flexion_l	/forceset/tau_hip_adduction_l	/forceset/tau_hip_rotation_l	/forceset/tau_knee_flexion_l	/forceset/tau_ankle_angle_l	/forceset/tau_subtalar_angle_l	/forceset/tau_lumbar_extension	lambda_cid13_p0	lambda_cid13_p1	lambda_cid13_p2	lambda_cid13_p3	lambda_cid13_p4	lambda_cid13_p5	lambda_cid14_p0	/jointset/ground_pelvis/pelvis_tilt/accel	/jointset/ground_pelvis/pelvis_tx/accel	/jointset/ground_pelvis/pelvis_ty/accel	/jointset/hip_l/hip_flexion_l/accel	/jointset/hip_l/hip_adduction_l/accel	/jointset/hip_l/hip_rotation_l/accel	/jointset/back/lumbar_extension/accel	/jointset/patellofemoral_l/patellar_flexion_l/accel	/jointset/knee_l/knee_flexion_l/accel	/jointset/knee_l/knee_adduction_l/accel	/jointset/knee_l/knee_rotation_l/accel	/jointset/ankle_l/ankle_angle_l/accel	/jointset/subtalar_l/subtalar_angle_l/accel	gamma_cid13_p0	gamma_cid13_p1	gamma_cid13_p2	gamma_cid13_p3	gamma_cid13_p4	gamma_cid13_p5	gamma_cid14_p0
0.5	-0.3422523711637822	-0.03934050516301653	0.7565624986873926	1.113828295098833	-0.4364520047099994	-0.2188637960908745	-0.2545515038395119	0.8226885750247732	0.8226885750247728	-0.121593015758309	-0.1587607079096901	0.1132924346040027	-0.02920497420840558	-0.7763693703177693	-0.2131384021347211	-0.5465302985169149	2.51463983638305	-0.2034377699123906	0.745906439082044	-0.1147185937557164	2.029335452783661	2.029335452783707	0.1493601668966308	-0.09133250572797255	0.4686484636321275	0.007650659241610237	-0.1698114138778413	0.02012315878469097	-0.011660548304617	-0.2219000342053939	0.06893105115279351	0.04318016349155997	0.1678169761866406	-10.55106050949191	-19.96384556858588	6.339968397600177	-7.193662447703177	-521.7643580320308	-61.83425444759035	-24.39738905147583	0.7964984019987171	0.62911562306619	-0.4740204661855924	-1.375979251321537	0.7451977558268634	-0.2015171230326568	1.112297666743471	-1.309315403972573	-1.309315403972576	0.08044403825720128	0.221988280664509	-0.5302493965343739	0.5429450755764276	-5.996275213645305e-07	-3.07869278208499e-07	3.222831335945757e-06	2.098884956587692e-07	-6.929081571483928e-07	8.881976043501161e-08	-4.853244796387184e-07
0.51	-0.3499740692643458	-0.04144018824186279	0.7510747354272777	1.138900723009157	-0.4384502672148685	-0.2114134514941522	-0.2556446305517467	0.8429133166441068	0.8429133166441074	-0.1200998681208625	-0.1596623879216619	0.1179511844696109	-0.02910325740355518	-0.767831043312115	-0.2067815046082004	-0.5509010444849545	2.499475280103444	-0.1961928819618379	0.7440261339589046	-0.1039822426178485	2.015342665808056	2.015342665808108	0.1492973836038363	-0.08901617629123183	0.4630273836646451	0.01268908385294688	-0.1753877912894614	0.02076463946867339	-0.01169615230446657	-0.2246321817730227	0.06820210972881995	0.04355730271542065	0.1720598827617634	-10.98964191948433	-20.02754829441863	6.323513152512204	-7.054641215392975	-525.4871034644752	-61.53994296840042	-23.45780722303424	0.9033031670034178	0.6415270666631113	-0.4005414295308443	-1.642354866463714	0.7170201834706318	-0.2021719921192862	1.042979748315348	-1.484694105911166	-1.484694105910055	-0.04536083710716927	0.2352039999294363	-0.5891398678750127	0.4834113144790184	-5.8653305454482e-07	-2.119432746750618e-07	3.277670682267992e-06	2.348818988280734e-07	-6.711293916637983e-07	1.770748025958296e-07	-4.799436999400077e-07
0.52	-0.3576062234314219	-0.04347579229560021	0.745546876753999	1.163810373146649	-0.4403755036664719	-0.2039860869056943	-0.2566326585704014	0.8629900436413731	0.8629900436413745	-0.1186064925811558	-0.1605411548943161	0.1225515030213403	-0.02895133232047806	-0.7584605836202768	-0.2003225971129556	-0.5545493811497028	2.482084281816495	-0.1888325592592386	0.7413104374291815	-0.09369885503970411	1.999732528370185	1.999732528370246	0.1494057473486663	-0.08674989786446778	0.4569622008563693	0.01769231488695296	-0.1809641687010799	0.02140612015265581	-0.01173175630431617	-0.2273643293406528	0.06747316830484638	0.04393444193928134	0.1763027893368862	-11.43149922781606	-20.09139625134129	6.307904318708736	-6.951726995104048	-529.2893246504145	-61.31038169075445	-22.51986966709734	0.9629249392355114	0.6495176168110222	-0.3295386055273844	-1.821267652790179	0.7682847062361863	-0.3685954043489623	1.021704954798791	-1.632785496425419	-1.632785496425415	0.1146734457821147	0.21197807866918	-0.6190699646930473	0.5359063601103137	-5.707827864092889e-07	-9.6748424337843e-08	3.32033261520691e-06	2.660074092971184e-07	-6.51989022659007e-07	2.636177235040697e-07	-4.694279338389456e-07
0.53	-0.3651413076327107	-0.04544637278328768	0.7399861067967334	1.188535899362684	-0.4422267083765237	-0.1965889502485909	-0.2575193906886619	0.8829026971109529	0.882902697110945	-0.1171120965245754	-0.1613969133014147	0.1270889430561455	-0.0287497519354088	-0.7484830379847931	-0.1937833119962827	-0.5574862860069784	2.462719035472093	-0.1814096750733226	0.7380526165579488	-0.08366339692296253	1.9825354598743	1.982535459874316	0.149416816995504	-0.08438294361029076	0.4504485746589384	0.0225901102995829	-0.1864211046187879	0.02189530981533789	-0.01169208922071913	-0.2302197985970971	0.06689890306417261	0.04407679727018284	0.1804399477787023	-11.82980760776081	-20.0531680655679	6.267184855585147	-6.788018518380597	-533.0753666863529	-60.92029014007446	-21.58608750135179	1.026072918239959	0.6577186945662802	-0.2581461684608338	-2.039534712783849	0.7286649781083172	-0.3144253739126954	0.9920919935288238	-1.802480595996117	-1.802480596002771	-0.06407170516660232	0.2525471619727852	-0.6790640115325352	0.4612833678267513	-5.5089347815422e-07	4.68285933511696e-09	3.33730357873578e-06	2.922407920768906e-07	-6.295496965381338e-07	3.482292067171318e-07	-4.570983230949664e-07
